<svg width="24" height="24" viewBox="0 0 24 24" fill="none" xmlns="http://www.w3.org/2000/svg">
<path d="M8.25 10.75V13.25" stroke="#4B535E" stroke-width="2" stroke-linecap="round" stroke-linejoin="round"/>
<path d="M9.5 12H7" stroke="#4B535E" stroke-width="2" stroke-linecap="round" stroke-linejoin="round"/>
<path d="M11.375 7H12.7118C13.7014 7 14.5 7.8132 14.5 8.82086V20.1791C14.5 21.1868 13.7014 22 12.7118 22H3.78819C2.79861 22 2 21.1868 2 20.1791V8.82086C2 7.8132 2.79861 7 3.78819 7H5.125" stroke="#4B535E" stroke-width="2" stroke-linecap="round" stroke-linejoin="round"/>
<path d="M9.92093 8.25H6.5903C6.12839 8.25 5.75562 7.87783 5.75562 7.41666V6.58333C5.75562 6.12217 6.12839 5.75 6.5903 5.75H9.92093C10.3828 5.75 10.7556 6.12217 10.7556 6.58333V7.41666C10.7475 7.87783 10.3747 8.25 9.92093 8.25Z" stroke="#4B535E" stroke-width="2" stroke-linecap="round" stroke-linejoin="round"/>
<path d="M5.75 17H10.75" stroke="#4B535E" stroke-width="2" stroke-linecap="round" stroke-linejoin="round"/>
<path d="M5.75 19.5H10.75" stroke="#4B535E" stroke-width="2" stroke-linecap="round" stroke-linejoin="round"/>
<path d="M15.75 7V9.5" stroke="#4B535E" stroke-width="2" stroke-linecap="round" stroke-linejoin="round"/>
<path d="M17 8.25H14.5" stroke="#4B535E" stroke-width="2" stroke-linecap="round" stroke-linejoin="round"/>
<path d="M18.8751 3.25H20.2119C21.2015 3.25 22.0001 4.0632 22.0001 5.07086V16.4291C22.0001 17.4368 21.2015 18.25 20.2119 18.25H17.0001M10.3879 3.49632C10.6522 3.33966 10.9597 3.25 11.2883 3.25H12.6251" stroke="#4B535E" stroke-width="2" stroke-linecap="round" stroke-linejoin="round"/>
<path d="M17.4209 4.5H14.0903C13.6284 4.5 13.2556 4.12783 13.2556 3.66666V2.83333C13.2556 2.37217 13.6284 2 14.0903 2H17.4209C17.8828 2 18.2556 2.37217 18.2556 2.83333V3.66666C18.2475 4.12783 17.8747 4.5 17.4209 4.5Z" stroke="#4B535E" stroke-width="2" stroke-linecap="round" stroke-linejoin="round"/>
<path d="M17 13.25H18.25" stroke="#4B535E" stroke-width="2" stroke-linecap="round" stroke-linejoin="round"/>
<path d="M17 15.75H18.25" stroke="#4B535E" stroke-width="2" stroke-linecap="round" stroke-linejoin="round"/>
</svg>
